<svg width="18" height="18" viewBox="0 0 18 18" fill="none" xmlns="http://www.w3.org/2000/svg">
<path d="M11.0653 6.45857L11.1795 6.74191L11.4838 6.76953L16.8258 7.25442L12.7578 10.9709L12.5446 11.1656L12.6067 11.4476L13.815 16.933L9.26813 14.0443L9 13.8739L8.73187 14.0443L4.18686 16.9319L5.40216 11.4482L5.46479 11.1656L5.2509 10.9705L1.17725 7.2558L6.51547 6.77907L6.82045 6.75183L6.93481 6.4678L9.00035 1.33782L11.0653 6.45857ZM5.12788 14.7369L4.86663 15.9139L5.88418 15.2673L8.99977 13.2873L12.1245 15.2765L13.1427 15.9247L12.8811 14.7464L12.0438 10.9741L14.8182 8.44081L15.6549 7.67671L14.5265 7.57365L10.8889 7.24145L9.4639 3.69767L8.99921 2.54204L8.53588 3.69822L7.11973 7.23201L3.48253 7.56418L2.35405 7.66724L3.19085 8.43133L5.96518 10.9647L5.12788 14.7369Z" fill="#5F6368" stroke="#5F6368"/>
</svg>
