<svg width="24" height="24" viewBox="0 0 24 24" fill="none" xmlns="http://www.w3.org/2000/svg">
<path d="M12 23.9951C18.6251 23.9951 24 18.6246 24 11.9988C24 5.37056 18.6276 0 12 0C5.37245 0 0 5.37056 0 11.9964C0 18.6246 5.37245 23.9951 12 23.9951Z" fill="#499557"/>
<path fill-rule="evenodd" clip-rule="evenodd" d="M14.7335 2.94493L14.5781 2.87695L14.7335 2.94979C14.7359 2.94979 14.7335 2.94736 14.7335 2.94493Z" fill="white"/>
<path d="M15.7386 20.5186C15.3526 20.5186 15.0394 20.8318 15.0394 21.2178C15.0394 21.6038 15.3526 21.917 15.7386 21.917C16.1247 21.917 16.4379 21.6038 16.4379 21.2178C16.4379 20.8293 16.1247 20.5186 15.7386 20.5186Z" fill="white"/>
<path d="M13.7963 16.8594H10.1159V17.561H13.7963V16.8594Z" fill="white"/>
<path fill-rule="evenodd" clip-rule="evenodd" d="M5.58852 8.47568V16.0095C5.58852 16.194 5.73904 16.3446 5.92354 16.3446H18.0789C18.2634 16.3446 18.4139 16.194 18.4139 16.0095V8.47568C18.4139 8.29116 18.2634 8.14062 18.0789 8.14062H5.92354C5.73661 8.14063 5.58852 8.28873 5.58852 8.47568ZM8.60612 13.3704C8.00892 13.3704 7.52581 12.8872 7.52581 12.2899C7.52581 11.6927 8.00892 11.2095 8.60612 11.2095C9.20333 11.2095 9.68644 11.6927 9.68644 12.2899C9.68644 12.8848 9.20333 13.3704 8.60612 13.3704ZM15.3963 13.3704C14.7991 13.3704 14.316 12.8872 14.316 12.2899C14.316 11.6927 14.7991 11.2095 15.3963 11.2095C15.9935 11.2095 16.4766 11.6927 16.4766 12.2899C16.4766 12.8848 15.9935 13.3704 15.3963 13.3704Z" fill="white"/>
<path d="M17.7026 18.085H6.30221C6.11771 18.085 5.96719 18.2355 5.96719 18.42V19.6801V19.9982H13.3231H13.4833V20.1584V23.9047C15.1268 23.7007 16.666 23.1666 18.0352 22.3702V19.6777V18.4176C18.0352 18.2331 17.8871 18.085 17.7026 18.085ZM15.741 22.4334C15.0661 22.4334 14.5223 21.8871 14.5223 21.2146C14.5223 20.5396 15.0685 19.9957 15.741 19.9957C16.4159 19.9957 16.9597 20.542 16.9597 21.2146C16.9573 21.8895 16.4111 22.4334 15.741 22.4334Z" fill="white"/>
<path d="M5.96481 22.3711C7.73702 23.4054 9.79811 24.0002 11.9976 24.0002C12.3229 24.0002 12.6433 23.9832 12.9614 23.9589V20.5186H5.96481V22.3711ZM6.98201 21.1085H7.45783H11.9466C12.085 21.1085 12.1967 21.2202 12.1967 21.3586C12.1967 21.497 12.085 21.6087 11.9466 21.6087H6.98201C6.84363 21.6087 6.73196 21.497 6.73196 21.3586C6.73196 21.2202 6.84363 21.1085 6.98201 21.1085Z" fill="white"/>
<path d="M4.1317 21.0575C4.54687 21.4168 4.9839 21.7495 5.4452 22.0505V19.9844C5.06645 19.9844 4.47889 20.3243 4.1317 21.0575Z" fill="white"/>
<path d="M19.8682 21.057C19.5185 20.3262 18.931 19.9863 18.5547 19.9863V22.0501C19.016 21.7466 19.4554 21.4164 19.8682 21.057Z" fill="white"/>
<path fill-rule="evenodd" clip-rule="evenodd" d="M11.8618 7.90992C12.3838 6.0477 13.7457 3.76788 14.559 2.90111L14.576 2.87684C14.5881 2.85984 14.6075 2.85013 14.6245 2.85013C14.7095 2.85256 14.7265 2.9084 14.7314 2.94482L14.7386 2.94967L14.7338 2.9521L14.6828 2.97638C13.5539 4.40157 12.5732 6.15696 12.1313 7.99975C12.8499 8.126 13.2845 7.54573 13.4981 7.082C13.503 7.06986 13.4932 7.05043 13.4811 7.048L13.1145 6.95574C13.0902 6.95089 13.0902 6.91204 13.1145 6.90718L13.5564 6.79064C13.8283 6.72995 14.1487 6.14724 14.2895 5.86803C14.2944 5.85589 14.2895 5.84133 14.2774 5.83404L13.9181 5.63981C13.8962 5.62767 13.9035 5.59611 13.9278 5.59368L14.6148 5.53298C14.6197 5.53298 14.6294 5.52813 14.6318 5.52084L15.0397 4.80703C15.0494 4.79246 15.0445 4.77547 15.0275 4.77061L14.6294 4.60552C14.6051 4.59338 14.6075 4.55938 14.6342 4.55696L15.1829 4.5084C15.1878 4.5084 15.1975 4.50354 15.1999 4.49626L15.5908 3.82858C15.5956 3.81644 15.5956 3.80187 15.581 3.79459L15.1829 3.5518C15.1611 3.53966 15.1708 3.50324 15.1975 3.50567L15.6514 3.54209C15.6612 3.54209 15.6733 3.53723 15.6757 3.52509L16.2851 1.66773C16.2899 1.65316 16.2802 1.63617 16.2608 1.64102C15.3553 1.59732 14.644 1.83526 14.3842 1.97122C14.3745 1.97608 14.3721 1.98579 14.3721 1.9955L14.4158 2.44952C14.4206 2.47623 14.3818 2.48837 14.3696 2.46409L14.2045 2.17517C14.1997 2.16545 14.1876 2.1606 14.1778 2.16303C13.7142 2.25772 13.1 3.00794 12.8402 3.38427C12.8353 3.38913 12.8353 3.39884 12.8353 3.40612L13.049 3.94755C13.0587 3.97183 13.032 3.99125 13.0101 3.97426L12.7115 3.72661C12.7018 3.72175 12.6897 3.7169 12.68 3.72661C12.527 3.86985 12.1483 4.60552 11.9662 4.97699C11.9614 4.9867 11.9614 4.99398 11.9711 5.00127L12.2867 5.46743C12.3013 5.48928 12.2745 5.51599 12.2527 5.50142L11.8376 5.22464C11.8279 5.21978 11.8133 5.21978 11.806 5.22949C11.6773 5.38002 11.6239 5.95544 11.6118 6.24436C11.6118 6.24922 11.6166 6.2565 11.6215 6.26136L11.9055 6.53328C11.9225 6.54785 11.9104 6.57942 11.8885 6.57699L11.5729 6.55028C11.5608 6.54542 11.5487 6.55514 11.5462 6.56728C11.3763 7.35149 11.6361 7.75939 11.8618 7.90992Z" fill="white"/>
</svg>
